<?xml version="1.0" encoding="UTF-8" standalone="no"?>
<!-- Created with Inkscape (http://www.inkscape.org/) -->

<svg
   xmlns:dc="http://purl.org/dc/elements/1.1/"
   xmlns:cc="http://creativecommons.org/ns#"
   xmlns:rdf="http://www.w3.org/1999/02/22-rdf-syntax-ns#"
   xmlns:svg="http://www.w3.org/2000/svg"
   xmlns="http://www.w3.org/2000/svg"
   xmlns:sodipodi="http://sodipodi.sourceforge.net/DTD/sodipodi-0.dtd"
   xmlns:inkscape="http://www.inkscape.org/namespaces/inkscape"
   width="11mm"
   height="11mm"
   viewBox="0 0 11 11"
   version="1.1"
   id="svg8"
   sodipodi:docname="black_queen.svg"
   inkscape:version="0.92.4 (5da689c313, 2019-01-14)">
  <defs
     id="defs2" />
  <sodipodi:namedview
     id="base"
     pagecolor="#ffffff"
     bordercolor="#666666"
     borderopacity="1.0"
     inkscape:pageopacity="0.0"
     inkscape:pageshadow="2"
     inkscape:zoom="1.4"
     inkscape:cx="-185.81636"
     inkscape:cy="-17.145755"
     inkscape:document-units="mm"
     inkscape:current-layer="Sprite"
     showgrid="false"
     inkscape:window-width="1920"
     inkscape:window-height="1017"
     inkscape:window-x="-8"
     inkscape:window-y="425"
     inkscape:window-maximized="1" />
  <metadata
     id="metadata5">
    <rdf:RDF>
      <cc:Work
         rdf:about="">
        <dc:format>image/svg+xml</dc:format>
        <dc:type
           rdf:resource="http://purl.org/dc/dcmitype/StillImage" />
        <dc:title></dc:title>
      </cc:Work>
    </rdf:RDF>
  </metadata>
  <g
     inkscape:label="Layer 1"
     inkscape:groupmode="layer"
     id="layer1"
     transform="translate(0,-286)">
    <g
       id="Sprite"
       transform="matrix(0.26458333,0,0,0.26458333,47.127331,33.632325)"
       style="fill:none;stroke:none;stroke-width:1">
      <g
         transform="translate(-174.33165,958.75431)"
         id="bq"
         style="fill:none;stroke-linecap:round;stroke-linejoin:round">
        <g
           id="g913"
           style="fill:#000000">
          <ellipse
             ry="2.4444444"
             rx="2.3974359"
             cy="6.2222223"
             cx="2.6153846"
             id="Oval" />
          <ellipse
             ry="2.4444444"
             rx="2.3974359"
             cy="3.5555556"
             cx="9.5897436"
             id="ellipse905" />
          <ellipse
             ry="2.4444444"
             rx="2.3974359"
             cy="2.6666667"
             cx="17"
             id="ellipse907" />
          <ellipse
             ry="2.4444444"
             rx="2.3974359"
             cy="3.5555556"
             cx="24.410257"
             id="ellipse909" />
          <ellipse
             ry="2.4444444"
             rx="2.3974359"
             cy="6.2222223"
             cx="31.384615"
             id="ellipse911" />
        </g>
        <path
           id="crown"
           d="m 5.2307692,18.666667 c 7.4102568,-1.333334 18.3076918,-1.333334 23.5384618,0 L 30.948718,7.5555556 24.410256,17.777778 24.148718,5.2444444 19.615385,17.333333 17,4.4444444 14.384615,17.333333 9.8512821,5.2444444 9.5897436,17.777778 3.0512821,7.5555556 Z"
           inkscape:connector-curvature="0"
           style="fill:#000000;stroke:#000000;stroke-width:1.5" />
        <path
           id="path916"
           d="m 5.2307692,18.666667 c 0,1.777777 1.3076923,1.777777 2.1794872,3.555555 0.8717949,1.333334 0.8717949,0.888889 0.4358975,3.111111 -1.3076924,0.888889 -1.3076924,2.222223 -1.3076924,2.222223 -1.3076923,1.333333 0.4358975,2.222222 0.4358975,2.222222 5.666667,0.888889 14.384615,0.888889 20.051282,0 0,0 1.307692,-0.888889 0,-2.222222 0,0 0.435897,-1.333334 -0.871795,-2.222223 -0.435897,-2.222222 -0.435897,-1.777777 0.435898,-3.111111 0.871794,-1.777778 2.179487,-1.777778 2.179487,-3.555555 -7.410257,-1.333334 -16.128205,-1.333334 -23.5384618,0 z"
           inkscape:connector-curvature="0"
           style="fill:#000000;stroke:#000000;stroke-width:1.5" />
        <path
           id="path918"
           d="m 6.974359,29.777778 c 6.492919,2.303088 13.558363,2.303088 20.051282,0"
           inkscape:connector-curvature="0"
           style="stroke:#000000;stroke-width:1.5" />
        <path
           id="path920"
           d="m 6.974359,21.333333 c 6.492919,-2.303088 13.558363,-2.303088 20.051282,0"
           inkscape:connector-curvature="0"
           style="stroke:#ffffff;stroke-width:1.5" />
        <path
           id="path922"
           d="M 8.2820513,23.555556 H 25.717949"
           inkscape:connector-curvature="0"
           style="stroke:#ffffff;stroke-width:1.5" />
        <path
           id="path924"
           d="m 7.4102564,26.222222 c 6.2269766,2.101932 12.9525106,2.101932 19.1794876,0"
           inkscape:connector-curvature="0"
           style="stroke:#ffffff;stroke-width:1.5" />
        <path
           id="path926"
           d="m 6.5384615,28.888889 c 6.7563865,2.514294 14.1666905,2.514294 20.9230765,0"
           inkscape:connector-curvature="0"
           style="stroke:#ffffff;stroke-width:1.5" />
      </g>
      <rect
         style="opacity:0.23000004;fill:none;fill-opacity:0.002924;stroke:#fffffe;stroke-width:7.57442379;stroke-linecap:round;stroke-linejoin:round;stroke-miterlimit:4;stroke-dasharray:none;stroke-dashoffset:0;stroke-opacity:0.01461989"
         id="rect1088"
         width="41.574802"
         height="41.574802"
         x="-178.11905"
         y="953.83057" />
    </g>
  </g>
</svg>
