<?xml version="1.0" encoding="UTF-8" standalone="no"?>
<!-- Created with Inkscape (http://www.inkscape.org/) -->

<svg
   xmlns:dc="http://purl.org/dc/elements/1.1/"
   xmlns:cc="http://creativecommons.org/ns#"
   xmlns:rdf="http://www.w3.org/1999/02/22-rdf-syntax-ns#"
   xmlns:svg="http://www.w3.org/2000/svg"
   xmlns="http://www.w3.org/2000/svg"
   xmlns:sodipodi="http://sodipodi.sourceforge.net/DTD/sodipodi-0.dtd"
   xmlns:inkscape="http://www.inkscape.org/namespaces/inkscape"
   width="11mm"
   height="11mm"
   viewBox="0 0 11 11"
   version="1.1"
   id="svg8"
   sodipodi:docname="white_knight.svg"
   inkscape:version="0.92.4 (5da689c313, 2019-01-14)">
  <defs
     id="defs2" />
  <sodipodi:namedview
     id="base"
     pagecolor="#ffffff"
     bordercolor="#666666"
     borderopacity="1.0"
     inkscape:pageopacity="0.0"
     inkscape:pageshadow="2"
     inkscape:zoom="2.8"
     inkscape:cx="181.10377"
     inkscape:cy="-3.2472745"
     inkscape:document-units="mm"
     inkscape:current-layer="Sprite"
     showgrid="false"
     inkscape:window-width="1920"
     inkscape:window-height="1017"
     inkscape:window-x="-8"
     inkscape:window-y="425"
     inkscape:window-maximized="1" />
  <metadata
     id="metadata5">
    <rdf:RDF>
      <cc:Work
         rdf:about="">
        <dc:format>image/svg+xml</dc:format>
        <dc:type
           rdf:resource="http://purl.org/dc/dcmitype/StillImage" />
        <dc:title></dc:title>
      </cc:Work>
    </rdf:RDF>
  </metadata>
  <g
     inkscape:label="Layer 1"
     inkscape:groupmode="layer"
     id="layer1"
     transform="translate(0,-286)">
    <g
       id="Sprite"
       transform="matrix(0.26458333,0,0,0.26458333,47.127331,33.632325)"
       style="fill:none;stroke:none;stroke-width:1">
      <g
         transform="translate(-170.91969,960.61797)"
         id="wn"
         style="fill:none;stroke:#000000;stroke-linecap:round;stroke-linejoin:round">
        <path
           id="path864"
           d="m 13.575758,2.625 c 8.90909,0.875 14,7 13.575757,25.375 H 7.6363636 c 0,-7.875 8.4848484,-5.6875 6.7878784,-18.375"
           inkscape:connector-curvature="0"
           style="fill:#ffffff;stroke-width:1.5" />
        <path
           id="path866"
           d="m 15.272727,9.625 c 0.322425,2.54625 -4.709091,6.44875 -6.7878785,7.875 -2.5454546,1.75 -2.3927273,3.7975 -4.2424243,3.5 -0.8841212,-0.8225 1.1963637,-2.66 0,-2.625 -0.8484848,0 0.1612122,1.07625 -0.8484848,1.75 C 2.5454546,20.125 -0.00254545,21 0,16.625 c 0,-1.75 5.0909091,-10.5 5.0909091,-10.5 0,0 1.6036363,-1.6625 1.6969697,-3.0625 C 6.1684848,2.19275 6.3636364,1.3125 6.3636364,0.4375 7.2121212,-0.4375 8.9090909,2.625 8.9090909,2.625 h 1.6969701 c 0,0 0.661818,-1.743 2.121212,-2.625 0.848485,0 0.848485,2.625 0.848485,2.625"
           inkscape:connector-curvature="0"
           style="fill:#ffffff;stroke-width:1.5" />
        <path
           id="path868"
           d="m 2.969697,16.1875 c 0,0.241625 -0.1899398,0.4375 -0.4242424,0.4375 -0.2343027,0 -0.4242425,-0.195875 -0.4242425,-0.4375 0,-0.241625 0.1899398,-0.4375 0.4242425,-0.4375 0.2343026,0 0.4242424,0.195875 0.4242424,0.4375 z"
           inkscape:connector-curvature="0"
           style="fill:#000000;stroke-width:1.5" />
        <path
           transform="rotate(30.000728,7.212121,7.4375)"
           id="path870"
           d="m 7.6363543,7.4375 c 0,0.7248578 -0.1899356,1.3124711 -0.4242331,1.3124711 -0.2342975,0 -0.4242331,-0.5876133 -0.4242331,-1.3124711 0,-0.7248578 0.1899356,-1.3124711 0.4242331,-1.3124711 0.2342975,0 0.4242331,0.5876133 0.4242331,1.3124711 z"
           inkscape:connector-curvature="0"
           style="fill:#000000;stroke-width:1.49996698" />
      </g>
      <rect
         style="opacity:0.23000004;fill:none;fill-opacity:0.002924;stroke:#fffffe;stroke-width:7.57442379;stroke-linecap:round;stroke-linejoin:round;stroke-miterlimit:4;stroke-dasharray:none;stroke-dashoffset:0;stroke-opacity:0.01461989"
         id="rect1088"
         width="41.574802"
         height="41.574802"
         x="-178.11905"
         y="953.83057" />
    </g>
  </g>
</svg>
