<?xml version="1.0" encoding="UTF-8" standalone="no"?>
<!-- Created with Inkscape (http://www.inkscape.org/) -->

<svg
   xmlns:dc="http://purl.org/dc/elements/1.1/"
   xmlns:cc="http://creativecommons.org/ns#"
   xmlns:rdf="http://www.w3.org/1999/02/22-rdf-syntax-ns#"
   xmlns:svg="http://www.w3.org/2000/svg"
   xmlns="http://www.w3.org/2000/svg"
   xmlns:sodipodi="http://sodipodi.sourceforge.net/DTD/sodipodi-0.dtd"
   xmlns:inkscape="http://www.inkscape.org/namespaces/inkscape"
   width="11mm"
   height="11mm"
   viewBox="0 0 11 11"
   version="1.1"
   id="svg8"
   sodipodi:docname="white_bishop.svg"
   inkscape:version="0.92.4 (5da689c313, 2019-01-14)">
  <defs
     id="defs2" />
  <sodipodi:namedview
     id="base"
     pagecolor="#ffffff"
     bordercolor="#666666"
     borderopacity="1.0"
     inkscape:pageopacity="0.0"
     inkscape:pageshadow="2"
     inkscape:zoom="2.8"
     inkscape:cx="181.10377"
     inkscape:cy="-3.2472745"
     inkscape:document-units="mm"
     inkscape:current-layer="Sprite"
     showgrid="false"
     inkscape:window-width="1920"
     inkscape:window-height="1017"
     inkscape:window-x="-8"
     inkscape:window-y="425"
     inkscape:window-maximized="1" />
  <metadata
     id="metadata5">
    <rdf:RDF>
      <cc:Work
         rdf:about="">
        <dc:format>image/svg+xml</dc:format>
        <dc:type
           rdf:resource="http://purl.org/dc/dcmitype/StillImage" />
        <dc:title></dc:title>
      </cc:Work>
    </rdf:RDF>
  </metadata>
  <g
     inkscape:label="Layer 1"
     inkscape:groupmode="layer"
     id="layer1"
     transform="translate(0,-286)">
    <g
       id="Sprite"
       transform="matrix(0.26458333,0,0,0.26458333,47.127331,33.632325)"
       style="fill:none;stroke:none;stroke-width:1">
      <g
         transform="translate(-171.33165,959.47891)"
         id="wb"
         style="fill:none;stroke:#000000;stroke-width:1.5;stroke-linecap:round;stroke-linejoin:round">
        <g
           id="Group"
           style="fill:#ffffff;fill-rule:nonzero">
          <path
             id="path854"
             d="M 2.5454546,27.352941 C 5.4218182,26.497059 11.123636,27.732353 14,25.588235 c 2.876364,2.144118 8.578182,0.908824 11.454545,1.764706 0,0 1.4,0.476471 2.545455,1.764706 -0.57697,0.855882 -1.4,0.87353 -2.545455,0.441176 C 22.578182,28.702941 16.876364,29.964706 14,28.676471 11.123636,29.964706 5.4218182,28.702941 2.5454546,29.558823 1.3966061,29.991177 0.57442424,29.973529 0,29.117647 1.1488485,27.405882 2.5454546,27.352941 2.5454546,27.352941 Z"
             inkscape:connector-curvature="0" />
          <path
             id="path856"
             d="m 7.6363636,23.823529 c 2.1212122,2.205883 10.6060604,2.205883 12.7272724,0 0.424243,-1.323529 0,-1.764706 0,-1.764706 0,-2.205882 -2.121212,-3.529411 -2.121212,-3.529411 C 22.909091,17.205882 23.333333,8.3823529 14,4.8529412 4.6666667,8.3823529 5.0909091,17.205882 9.7575758,18.529412 c 0,0 -2.1212122,1.323529 -2.1212122,3.529411 0,0 -0.4242424,0.441177 0,1.764706 z"
             inkscape:connector-curvature="0" />
          <path
             id="path858"
             d="m 16.121212,2.6470588 c 0,1.2182752 -0.949699,2.2058824 -2.121212,2.2058824 -1.171513,0 -2.121212,-0.9876072 -2.121212,-2.2058824 0,-1.2182752 0.949699,-2.20588233 2.121212,-2.20588233 1.171513,0 2.121212,0.98760713 2.121212,2.20588233 z"
             inkscape:connector-curvature="0" />
        </g>
        <path
           id="path861"
           d="M 9.7575758,18.529412 H 18.242424 M 7.6363636,22.058823 H 20.363636 M 14,9.2647059 v 4.4117651 m -2.121212,-2.205883 h 4.242424"
           inkscape:connector-curvature="0" />
      </g>
      <rect
         style="opacity:0.23000004;fill:none;fill-opacity:0.002924;stroke:#fffffe;stroke-width:7.57442379;stroke-linecap:round;stroke-linejoin:round;stroke-miterlimit:4;stroke-dasharray:none;stroke-dashoffset:0;stroke-opacity:0.01461989"
         id="rect1088"
         width="41.574802"
         height="41.574802"
         x="-178.11905"
         y="953.83057" />
    </g>
  </g>
</svg>
